<svg xmlns="http://www.w3.org/2000/svg" viewBox="0 0 400 600" fill="none" stroke="#94a3b8" stroke-width="1.5">
  <!-- Head (simplified) -->
  <ellipse cx="200" cy="60" rx="40" ry="50" stroke-width="2"/>

  <!-- Neck -->
  <path data-region="NECK" d="M180 108 L180 155 L220 155 L220 108" fill="transparent" stroke="none" cursor="pointer"/>
  <line x1="180" y1="108" x2="180" y2="155" stroke-width="1.5"/>
  <line x1="220" y1="108" x2="220" y2="155" stroke-width="1.5"/>

  <!-- Shoulders -->
  <path d="M180 155 C160 155 120 160 80 180" stroke-width="2"/>
  <path d="M220 155 C240 155 280 160 320 180" stroke-width="2"/>

  <!-- Decollete area -->
  <path data-region="DECOLLETE" d="M120 170 C140 162 170 158 200 157 C230 158 260 162 280 170 L285 250 C260 255 230 258 200 258 C170 258 140 255 115 250Z" fill="transparent" stroke="none" cursor="pointer"/>

  <!-- Chest outline -->
  <path d="M80 180 L75 300 C75 320 80 350 90 380" stroke-width="2"/>
  <path d="M320 180 L325 300 C325 320 320 350 310 380" stroke-width="2"/>

  <!-- Collarbone -->
  <path d="M140 165 C160 160 180 158 200 157 C220 158 240 160 260 165" stroke-width="1" opacity="0.5"/>

  <!-- Neckline V -->
  <path d="M170 160 L200 195 L230 160" stroke-width="1" opacity="0.3"/>

  <!-- Torso midline -->
  <line x1="200" y1="195" x2="200" y2="450" stroke-width="1" opacity="0.2"/>

  <!-- Arms -->
  <path d="M80 180 C65 210 55 260 50 310 C48 340 50 370 55 400" stroke-width="2"/>
  <path d="M320 180 C335 210 345 260 350 310 C352 340 350 370 345 400" stroke-width="2"/>

  <!-- Hands -->
  <path data-region="HANDS" d="M40 395 C35 410 30 430 32 445 C34 455 40 460 48 458 L55 450 L58 458 C62 462 68 460 70 455 L72 445 L75 455 C78 460 84 458 85 452 L84 440 L88 448 C92 452 96 448 95 442 L88 410 C82 400 72 395 60 394Z" fill="transparent" stroke="none" cursor="pointer"/>
  <path d="M42 400 C38 415 35 435 37 448 C39 455 44 458 50 455 L55 448" stroke-width="1.5"/>
  <path d="M55 448 L58 456 C62 460 66 458 67 453" stroke-width="1.5"/>
  <path d="M67 445 L70 454 C73 458 78 456 78 450" stroke-width="1.5"/>
  <path d="M78 440 L82 448 C85 452 90 448 88 442 L82 415" stroke-width="1.5"/>

  <path data-region="HANDS" d="M360 395 C365 410 370 430 368 445 C366 455 360 460 352 458 L345 450 L342 458 C338 462 332 460 330 455 L328 445 L325 455 C322 460 316 458 315 452 L316 440 L312 448 C308 452 304 448 305 442 L312 410 C318 400 328 395 340 394Z" fill="transparent" stroke="none" cursor="pointer"/>
  <path d="M358 400 C362 415 365 435 363 448 C361 455 356 458 350 455 L345 448" stroke-width="1.5"/>
  <path d="M345 448 L342 456 C338 460 334 458 333 453" stroke-width="1.5"/>
  <path d="M333 445 L330 454 C327 458 322 456 322 450" stroke-width="1.5"/>
  <path d="M322 440 L318 448 C315 452 310 448 312 442 L318 415" stroke-width="1.5"/>

  <!-- Waist -->
  <path d="M90 380 C120 395 160 400 200 402 C240 400 280 395 310 380" stroke-width="1" opacity="0.3"/>

  <!-- Lower torso -->
  <path d="M90 380 L95 450 C100 470 130 480 200 485 C270 480 300 470 305 450 L310 380" stroke-width="2"/>

  <!-- Labels -->
  <text x="200" y="140" text-anchor="middle" font-size="11" fill="#64748b" font-family="system-ui" class="region-label" data-for="NECK">Neck</text>
  <text x="200" y="220" text-anchor="middle" font-size="11" fill="#64748b" font-family="system-ui" class="region-label" data-for="DECOLLETE">Decollete</text>
  <text x="55" y="435" text-anchor="middle" font-size="10" fill="#64748b" font-family="system-ui" class="region-label" data-for="HANDS">Hand</text>
  <text x="345" y="435" text-anchor="middle" font-size="10" fill="#64748b" font-family="system-ui" class="region-label" data-for="HANDS">Hand</text>
</svg>
